<svg width="24" height="24" viewBox="0 0 24 24" fill="none" xmlns="http://www.w3.org/2000/svg">
<path d="M5.07005 18.9995H19.0001C19.3187 18.9831 19.6287 18.8907 19.9043 18.73C20.1799 18.5694 20.4131 18.3451 20.5844 18.0759C20.7557 17.8068 20.8601 17.5006 20.8889 17.1828C20.9177 16.8651 20.8701 16.5451 20.7501 16.2495L13.7501 3.99953C13.5771 3.68693 13.3236 3.42636 13.0158 3.24491C12.7081 3.06347 12.3573 2.96777 12.0001 2.96777C11.6428 2.96777 11.2921 3.06347 10.9843 3.24491C10.6765 3.42636 10.423 3.68693 10.2501 3.99953L3.25005 16.2495C3.12999 16.5451 3.08239 16.8651 3.1112 17.1828C3.14002 17.5006 3.24443 17.8068 3.4157 18.0759C3.58698 18.3451 3.82016 18.5694 4.09578 18.73C4.3714 18.8907 4.68145 18.9831 5.00005 18.9995" fill="#CD2A32"/>
<path d="M5.07005 18.9995H19.0001C19.3187 18.9831 19.6287 18.8907 19.9043 18.73C20.1799 18.5694 20.4131 18.3451 20.5844 18.0759C20.7557 17.8068 20.8601 17.5006 20.8889 17.1828C20.9177 16.8651 20.8701 16.5451 20.7501 16.2495L13.7501 3.99953C13.5771 3.68693 13.3236 3.42636 13.0158 3.24491C12.7081 3.06347 12.3573 2.96777 12.0001 2.96777C11.6428 2.96777 11.2921 3.06347 10.9843 3.24491C10.6765 3.42636 10.423 3.68693 10.2501 3.99953L3.25005 16.2495C3.12999 16.5451 3.08239 16.8651 3.1112 17.1828C3.14002 17.5006 3.24443 17.8068 3.4157 18.0759C3.58698 18.3451 3.82016 18.5694 4.09578 18.73C4.3714 18.8907 4.68145 18.9831 5.00005 18.9995" stroke="#CD2A32" stroke-width="1.5" stroke-linecap="round" stroke-linejoin="round"/>
<path d="M12 15V15.01M12 9V11V9Z" stroke="white" stroke-width="1.5" stroke-linecap="round" stroke-linejoin="round"/>
</svg>
