<svg width="419" height="35" viewBox="0 0 419 35" fill="none" xmlns="http://www.w3.org/2000/svg">
  <path d="M0.422852 0.775879V34.9999H13.3949V14.2539L34.8309 34.9999H47.8949V0.775879H34.9229V20.2339L15.0509 0.775879H0.422852Z" fill="#3759FD"/>
  <path d="M65.3256 0.775879H52.3076V34.9999H65.3256V0.775879Z" fill="#3759FD"/>
  <path d="M69.7373 34.9999H82.4793V13.6559L94.4393 34.9999H101.109L113.115 13.6559V34.9999H126.041V0.775879H108.837L98.1653 20.0039L87.6773 0.775879H69.7373V34.9999Z" fill="#3759FD"/>
  <path d="M130.472 34.9999H162.856C174.034 34.9999 177.3 30.4919 177.3 25.1099V24.5579C177.3 18.5319 172.47 16.5079 169.434 15.7719C171.688 15.2659 175.322 13.3339 175.322 9.05588V8.54988C175.322 4.63988 172.654 0.775879 162.672 0.775879H130.472V34.9999ZM158.716 8.54988C161.43 8.54988 162.212 9.56188 162.212 10.8959V10.9879C162.212 12.2759 161.43 13.3799 158.716 13.3799H143.536V8.54988H158.716ZM159.544 21.0619C162.902 21.0619 163.592 22.3959 163.592 23.8679V24.0059C163.592 25.3399 162.948 26.9499 159.544 26.9499H143.536V21.0619H159.544Z" fill="#3759FD"/>
  <path d="M180.065 0.775879V34.9999H216.865V25.2019H193.129V0.775879H180.065Z" fill="#3759FD"/>
  <path d="M220.315 0.775879V34.9999H258.541V26.4439H233.195V21.7519H257.667V13.4259H233.195V9.14788H258.173V0.775879H220.315Z" fill="#3759FD"/>
  <path d="M262.317 0.775879V34.9999H299.117V25.2019H275.381V0.775879H262.317Z" fill="#3759FD"/>
  <path d="M315.585 0.775879H302.567V34.9999H315.585V0.775879Z" fill="#3759FD"/>
  <path d="M319.997 0.775879V34.9999H332.969V14.2539L354.405 34.9999H367.469V0.775879H354.497V20.2339L334.625 0.775879H319.997Z" fill="#3759FD"/>
  <path d="M384.946 34.9999V19.6819L401.644 34.9999H418.664L398.102 16.3239L418.02 0.775879H401.782L384.946 14.2999V0.775879H371.882V34.9999H384.946Z" fill="#3759FD"/>
</svg>
