<svg width="147" height="12" viewBox="0 0 147 12" fill="none" xmlns="http://www.w3.org/2000/svg">
<path d="M0 0V12H4.54839V4.72581L12.0645 12H16.6452V0H12.0968V6.82258L5.12903 0H0Z" fill="#F5F5F5"/>
<path d="M22.7569 0H18.1924V12H22.7569V0Z" fill="#F5F5F5"/>
<path d="M24.3038 12H28.7716V4.51613L32.9651 12H35.3038L39.5135 4.51613V12H44.0458V0H38.0135L34.2716 6.74194L30.5941 0H24.3038V12Z" fill="#F5F5F5"/>
<path d="M45.5992 12H56.954C60.8734 12 62.0185 10.4194 62.0185 8.53226V8.33871C62.0185 6.22581 60.325 5.51613 59.2605 5.25806C60.0508 5.08065 61.325 4.40323 61.325 2.90323V2.72581C61.325 1.35484 60.3895 0 56.8895 0H45.5992V12ZM55.5024 2.72581C56.454 2.72581 56.7282 3.08065 56.7282 3.54839V3.58065C56.7282 4.03226 56.454 4.41935 55.5024 4.41935H50.1798V2.72581H55.5024ZM55.7927 7.1129C56.9701 7.1129 57.2121 7.58065 57.2121 8.09678V8.14516C57.2121 8.6129 56.9863 9.17742 55.7927 9.17742H50.1798V7.1129H55.7927Z" fill="#F5F5F5"/>
<path d="M62.9883 0V12H75.8915V8.56452H67.5689V0H62.9883Z" fill="#F5F5F5"/>
<path d="M77.1012 0V12H90.5044V9H81.6173V7.35484H90.198V4.43548H81.6173V2.93548H90.3754V0H77.1012Z" fill="#F5F5F5"/>
<path d="M91.8284 0V12H104.732V8.56452H96.409V0H91.8284Z" fill="#F5F5F5"/>
<path d="M110.506 0H105.941V12H110.506V0Z" fill="#F5F5F5"/>
<path d="M112.053 0V12H116.601V4.72581L124.117 12H128.698V0H124.149V6.82258L117.182 0H112.053Z" fill="#F5F5F5"/>
<path d="M134.826 12V6.62903L140.681 12H146.648L139.439 5.45161L146.423 0H140.729L134.826 4.74194V0H130.245V12H134.826Z" fill="#F5F5F5"/>
</svg>
